{"title":"You.Will.Meet.A.Tall.Dark.Stranger.2010.720p.BRRip.x264.Feel-Fre","uid":6125941,"size":1880605819,"categoryP":"video","categoryS":"hd___movies","magnet":"?xt=urn:btih:5efaa0a7ee2802d583622ca0d1d5a065e7e93b53&amp;dn=You.Will.Meet.A.Tall.Dark.Stranger.2010.720p.BRRip.x264.Feel-Fre&amp;tr=udp%3A%2F%2Ftracker.openbittorrent.com%3A80&amp;tr=udp%3A%2F%2Fopen.demonii.com%3A1337&amp;tr=udp%3A%2F%2Ftracker.coppersurfer.tk%3A6969&amp;tr=udp%3A%2F%2Fexodus.desync.com%3A6969","seeders":1,"leechers":0,"uploader":"SaM","files":13,"time":1295941389,"description":"Genre:Comedy | Romance\nLanguage:English\nIMDb:http://www.imdb.com/title/tt1182350/\nSource:720p.Bluray.x264.DTS.HDChina\nSubtitles:Romana\n\n\nFree.mkv\nFormat : Matroska\nFile size : 1.74 GiB\nDuration : 1h 38mn\nOverall bit rate : 2 530 Kbps\n\n\nVideo\nFormat settings, CABAC : Yes\nFormat settings, ReFrames : 4 frames\nCodec ID : V_MPEG4/ISO/AVC\nDuration : 1h 38mn\nBit rate : 2 200 Kbps\nWidth : 1 280 pixels\nHeight : 720 pixels\nDisplay aspect ratio : 16:9\nFrame rate mode : Variable\nFrame rate : 23.976 fps\nColor space : YUV\nChroma subsampling : 4:2:0\nBit depth : 8 bits\nScan type : Progressive\nBits/(Pixel*Frame) : 0.100\nStream size : 1.44 GiB (83%)\nWriting library : x264\n\n\nAudio\nID : 2\nFormat : AC-3\nFormat/Info : Audio Coding 3\nMode extension : CM (complete main)\nCodec ID : A_AC3\nDuration : 1h 38mn\nBit rate mode : Constant\nBit rate : 384 Kbps\nChannel(s) : 3 channels\nChannel positions : Front: L C R\nSampling rate : 48.0 KHz\nBit depth : 16 bits\nVideo delay : -1mn 5s\nStream size : 271 MiB (15%)\nLanguage : English\n\n\nPlot:\nFollows a pair of married couples, Alfie (Hopkins) and Helena (Jones), and their daughter Sally (Watts) and husband Roy (Brolin)\n &lt;a href=&quot;\nhttp://www.rapidhdd.com/images/199235vlcsnap-00005.png&quot; rel=&quot;nofollow&quot; target=&quot;_NEW&quot;&gt;\nhttp://www.rapidhdd.com/images/199235vlcsnap-00005.png&lt;/a&gt;\n &lt;a href=&quot;\nhttp://www.rapidhdd.com/images/752707vlcsnap-00007.png&quot; rel=&quot;nofollow&quot; target=&quot;_NEW&quot;&gt;\nhttp://www.rapidhdd.com/images/752707vlcsnap-00007.png&lt;/a&gt;\n &lt;a href=&quot;\nhttp://www.rapidhdd.com/images/705612vlcsnap-00003.png&quot; rel=&quot;nofollow&quot; target=&quot;_NEW&quot;&gt;\nhttp://www.rapidhdd.com/images/705612vlcsnap-00003.png&lt;/a&gt;\n &lt;a href=&quot;\nhttp://rapidhdd.com/images/561075vlcsnap-00001.png&quot; rel=&quot;nofollow&quot; target=&quot;_NEW&quot;&gt;\nhttp://rapidhdd.com/images/561075vlcsnap-00001.png&lt;/a&gt;\n\n\nGreets:\n\nINK,CRYS,IMAGINE,LKRG,FXG,3Li,FLAWL3SS,TA,iLLUSiON,ViSiON,LU,TheFalcon007,PrisM,Noir,WBZ,LAP,Rx,Kingdom,SAFCuk009+Fabreezy,HDLiTE,TWiZTED,ExtraTorrentRG.ELEKTRI4KA,MAGNAT,CM8\nAnd to all the other p2p grps past and present\n\n\n\n\nMake sure its a real Feel-Free release @ extratorrent","torrent":{"xt":"urn:btih:5efaa0a7ee2802d583622ca0d1d5a065e7e93b53","amp;dn":"You.Will.Meet.A.Tall.Dark.Stranger.2010.720p.BRRip.x264.Feel-Fre","amp;tr":["udp%3A%2F%2Ftracker.openbittorrent.com%3A80","udp%3A%2F%2Fopen.demonii.com%3A1337","udp%3A%2F%2Ftracker.coppersurfer.tk%3A6969","udp%3A%2F%2Fexodus.desync.com%3A6969"],"infoHash":"5efaa0a7ee2802d583622ca0d1d5a065e7e93b53","infoHashBuffer":{"type":"Buffer","data":[94,250,160,167,238,40,2,213,131,98,44,160,209,213,160,101,231,233,59,83]},"announce":[],"urlList":[]}}